<svg xmlns="http://www.w3.org/2000/svg" viewBox="0 0 120 120" fill="none" role="img" aria-label="Study A — Relic">
  <g fill="currentColor">
    <path d="M34.2 21.0
      C34.2 16.0 37.8 13.5 41.2 13.5
      C44.6 13.5 47.8 16.0 47.8 21.0
      C47.8 30.0 49.6 41.0 50.4 54.0
      C49.6 67.0 47.8 80.0 47.8 99.0
      C47.8 104.0 44.6 106.5 41.2 106.5
      C37.8 106.5 34.2 104.0 34.2 99.0
      C33.0 80.0 33.0 40.0 34.2 21.0
      Z"/>
    <path d="M85.8 21.0
      C85.8 16.0 82.2 13.5 78.8 13.5
      C75.4 13.5 72.2 16.0 72.2 21.0
      C72.2 30.0 70.4 41.0 69.6 54.0
      C70.4 67.0 72.2 80.0 72.2 99.0
      C72.2 104.0 75.4 106.5 78.8 106.5
      C82.2 106.5 85.8 104.0 85.8 99.0
      C87.0 80.0 87.0 40.0 85.8 21.0
      Z"/>
    <circle cx="60.00" cy="54.00" r="9.40"/>
  </g>
</svg>
