<svg xmlns="http://www.w3.org/2000/svg" viewBox="0 0 360 200" fill="none" role="img" aria-label="Mark construction grid">
  <rect width="360" height="200" fill="#F7F6F3"/>
  <g stroke="#D6D9D7" stroke-width="0.5">
    <line x1="40" y1="20" x2="40" y2="180"/>
    <line x1="80" y1="20" x2="80" y2="180"/>
    <line x1="120" y1="20" x2="120" y2="180"/>
    <line x1="160" y1="20" x2="160" y2="180"/>
    <line x1="200" y1="20" x2="200" y2="180"/>
    <line x1="240" y1="20" x2="240" y2="180"/>
    <line x1="20" y1="40" x2="260" y2="40"/>
    <line x1="20" y1="80" x2="260" y2="80"/>
    <line x1="20" y1="100" x2="260" y2="100"/>
    <line x1="20" y1="120" x2="260" y2="120"/>
    <line x1="20" y1="160" x2="260" y2="160"/>
  </g>
  <g transform="translate(80 40) scale(1.2766) translate(-35.9 -13)">
    <g fill="#0A0A0A"><rect x="35.90" y="13.00" width="11.00" height="94.00" rx="5.50"/>
<rect x="73.10" y="13.00" width="11.00" height="94.00" rx="5.50"/></g>
    <g fill="#7A7F7C"><circle cx="60.00" cy="60.00" r="11.40"/></g>
  </g>
  <g font-family="ui-monospace, monospace" font-size="9" fill="#2A2A2A">
    <text x="80" y="34">11</text>
    <text x="128" y="34">26.2</text>
    <text x="176" y="34">11</text>
    <text x="272" y="52">height 94</text>
    <text x="272" y="108">sphere r 11.4</text>
    <text x="272" y="128">two-value: structure / bead</text>
    <text x="272" y="164">1-bit: members + ring</text>
  </g>
</svg>
