<svg xmlns="http://www.w3.org/2000/svg" viewBox="0 0 360 200" fill="none" role="img" aria-label="Mark construction grid">
  <rect width="360" height="200" fill="#F7F6F3"/>
  <g stroke="#D6D9D7" stroke-width="0.5">
    <line x1="40" y1="20" x2="40" y2="180"/>
    <line x1="80" y1="20" x2="80" y2="180"/>
    <line x1="120" y1="20" x2="120" y2="180"/>
    <line x1="160" y1="20" x2="160" y2="180"/>
    <line x1="200" y1="20" x2="200" y2="180"/>
    <line x1="240" y1="20" x2="240" y2="180"/>
    <line x1="20" y1="40" x2="260" y2="40"/>
    <line x1="20" y1="80" x2="260" y2="80"/>
    <line x1="20" y1="100" x2="260" y2="100"/>
    <line x1="20" y1="120" x2="260" y2="120"/>
    <line x1="20" y1="160" x2="260" y2="160"/>
  </g>
  <g transform="translate(80 40) scale(1.2766) translate(-35.9 -13)">
  <defs>
    <linearGradient id="cnColL" x1="35.90" y1="13.00" x2="46.90" y2="13.00" gradientUnits="userSpaceOnUse">
      <stop offset="0" stop-color="#0A0A0A"/>
      <stop offset="0.58" stop-color="#0A0A0A"/>
      <stop offset="0.62" stop-color="#2A2A2A"/>
      <stop offset="1" stop-color="#2A2A2A"/>
    </linearGradient>
    <linearGradient id="cnColR" x1="73.10" y1="13.00" x2="84.10" y2="13.00" gradientUnits="userSpaceOnUse">
      <stop offset="0" stop-color="#2A2A2A"/>
      <stop offset="0.38" stop-color="#2A2A2A"/>
      <stop offset="0.42" stop-color="#0A0A0A"/>
      <stop offset="1" stop-color="#0A0A0A"/>
    </linearGradient>
    <radialGradient id="cnBead" cx="34%" cy="28%" r="72%">
      <stop offset="0" stop-color="#B8BCBA"/>
      <stop offset="0.36" stop-color="#3A3E3C"/>
      <stop offset="1" stop-color="#1A1C1B"/>
    </radialGradient>
  </defs>
  <rect x="35.90" y="13.00" width="11.00" height="94.00" rx="5.50" fill="url(#cnColL)"/>
  <rect x="73.10" y="13.00" width="11.00" height="94.00" rx="5.50" fill="url(#cnColR)"/>
  <circle cx="60.00" cy="60.00" r="11.40" fill="url(#cnBead)"/>
  </g>
  <g font-family="ui-monospace, monospace" font-size="9" fill="#2A2A2A">
    <text x="80" y="34">11</text>
    <text x="128" y="34">26.2</text>
    <text x="176" y="34">11</text>
    <text x="272" y="52">height 94</text>
    <text x="272" y="108">sphere r 11.4</text>
    <text x="272" y="128">bead: pole / body / terminator</text>
    <text x="272" y="148">members: inner-edge step</text>
    <text x="272" y="168">1-bit: members + ring (mono)</text>
  </g>
</svg>
