<svg xmlns="http://www.w3.org/2000/svg" viewBox="0 0 416.2 121.6" fill="none" role="img" aria-label="Gloock W a g M">
  <path fill="#0A0A0A" transform="translate(12.00 84.00) scale(0.096000 -0.096000)" d="M330 -15 72 631Q29 740 -24 740H-27V750H290V740H286Q241 740 226.0 712.5Q211 685 230 637L407 186L512 446L446 631Q427 685 400.5 712.5Q374 740 334 740H332V750H653V740H649Q606 740 593.0 713.0Q580 686 596 637L749 186L920 636Q937 681 916.5 709.5Q896 738 845 740V750H1028V740Q1001 740 977.5 714.0Q954 688 939 648L684 -15H676L518 427L339 -15Z"/>
  <path fill="#0A0A0A" transform="translate(136.29 84.00) scale(0.096000 -0.096000)" d="M166 -14Q105 -14 68.0 19.0Q31 52 31 106Q31 129 39.0 149.5Q47 170 69 190Q92 210 132.0 231.5Q172 253 238 277L331 311V386Q331 443 313.0 476.5Q295 510 263 510Q225 509 198.5 460.0Q172 411 163 324L55 386Q72 427 107.0 458.0Q142 489 187.5 506.0Q233 523 283 523Q368 523 421.5 475.5Q475 428 475 346V105Q475 47 514 47Q537 47 559 72L567 65Q541 30 504.0 8.0Q467 -14 432 -14Q394 -14 366.5 12.0Q339 38 332 81Q283 31 246.5 8.5Q210 -14 166 -14ZM241 48Q263 48 283.5 59.0Q304 70 330 95L331 298L291 283Q240 264 213.0 244.5Q186 225 175.5 201.0Q165 177 165 146Q165 103 186.5 75.5Q208 48 241 48Z"/>
  <path fill="#0A0A0A" transform="translate(217.18 84.00) scale(0.096000 -0.096000)" d="M256 -224Q150 -224 84.5 -195.5Q19 -167 19 -121Q19 -86 52.5 -58.5Q86 -31 144 -16Q50 8 50 69Q50 102 76.0 130.5Q102 159 149 176Q99 198 71.5 240.0Q44 282 44 339Q44 422 101.5 472.0Q159 522 256 522Q302 522 346 508H530L520 490H384Q424 467 445.5 428.5Q467 390 467 339Q467 256 410.5 205.5Q354 155 256 155Q202 155 161 171Q129 154 129 131Q129 111 157 104Q171 100 197.0 97.0Q223 94 260 93L295 91Q410 87 472.5 47.0Q535 7 535 -62Q535 -139 461.0 -181.5Q387 -224 256 -224ZM255 167Q286 167 306 214Q324 261 324 339Q324 418 306 464Q287 509 256 509Q224 509 206 464Q188 418 188 339Q188 260 206 213Q224 167 255 167ZM267 -211Q313 -211 352.0 -197.5Q391 -184 414.5 -160.0Q438 -136 438 -105Q438 -71 403 -51Q366 -32 290 -31L255 -29Q226 -28 201.5 -25.5Q177 -23 158 -19Q137 -26 127.0 -47.0Q117 -68 117 -97Q117 -149 156.0 -180.0Q195 -211 267 -211Z"/>
  <path fill="#0A0A0A" transform="translate(297.02 84.00) scale(0.096000 -0.096000)" d="M411 -14 131 628 84 102Q80 62 107.0 37.0Q134 12 173 10V0H-27V10Q11 12 37.0 38.0Q63 64 67 103L117 656Q98 695 69.5 717.5Q41 740 -4 740V750H236L480 185L724 750H911V740Q879 740 857.0 721.0Q835 702 837 669L888 77Q893 43 920.5 26.0Q948 9 975 9V0H665V9Q682 9 700.0 17.0Q718 25 729.5 40.0Q741 55 738 75L689 627Z"/>
</svg>
